<svg xmlns="http://www.w3.org/2000/svg" xmlns:xlink="http://www.w3.org/1999/xlink" viewBox="0 0 764.77 178.37"><defs><style>.cls-1,.cls-2,.cls-3,.cls-4,.cls-5{fill:#116892;}.cls-1,.cls-2,.cls-4,.cls-5{stroke:#116892;stroke-miterlimit:10;}.cls-1{stroke-width:3px;}.cls-4{stroke-width:2.35px;}.cls-5{stroke-width:0.5px;}</style><symbol id="Isotipo_2" data-name="Isotipo 2" viewBox="0 0 196.24 195.86"><path class="cls-1" d="M49.31,146.93h0A85.19,85.19,0,0,1,109.55,1.5h84.19a1,1,0,0,1,1,1V86.69A85.19,85.19,0,0,1,49.31,146.93Zm131-131h-72a65.59,65.59,0,0,0-31.92,8.09C52.48,37.33,38.83,61,38.83,86.69a70.73,70.73,0,0,0,141.45,0Z"/><path class="cls-2" d="M151,149l18.13-18.13a6.55,6.55,0,0,1,9.25,0L193,145.56a6.58,6.58,0,0,1,0,9.26l-18.12,18.12a6.56,6.56,0,0,1-9.26,0L151,158.29A6.57,6.57,0,0,1,151,149Z"/><path class="cls-2" d="M95.14,161.55h25.64a6.55,6.55,0,0,1,6.54,6.54v20.72a6.56,6.56,0,0,1-6.54,6.55H95.15a6.56,6.56,0,0,1-6.55-6.54V168.09A6.56,6.56,0,0,1,95.14,161.55Z"/><path class="cls-2" d="M46.83,130.92,65,149.05a6.55,6.55,0,0,1,0,9.25L50.3,173a6.57,6.57,0,0,1-9.25,0L22.92,154.84a6.56,6.56,0,0,1,0-9.26l14.65-14.65A6.57,6.57,0,0,1,46.83,130.92Z"/><path class="cls-2" d="M34.31,75.1v25.64a6.56,6.56,0,0,1-6.55,6.54H7.05A6.57,6.57,0,0,1,.5,100.74V75.11A6.56,6.56,0,0,1,7,68.56H27.77A6.56,6.56,0,0,1,34.31,75.1Z"/><path class="cls-2" d="M64.94,26.79,46.81,44.91a6.56,6.56,0,0,1-9.25,0L22.9,30.26a6.57,6.57,0,0,1,0-9.25L41,2.88a6.56,6.56,0,0,1,9.26,0L64.94,17.53A6.58,6.58,0,0,1,64.94,26.79Z"/></symbol></defs><title>COMPLETO COLOR PRINCIPAL</title><g id="Capa_2" data-name="Capa 2"><g id="Capa_1-2" data-name="Capa 1"><use id="Isotipo_2-3" data-name="Isotipo 2" width="196.24" height="195.86" transform="translate(-23.36 106.19) rotate(-45) scale(0.77)" xlink:href="#Isotipo_2"/><path class="cls-3" d="M32,98.06a1,1,0,0,1,1.51-1c9.07,5.92,23,12.85,39,11,30.08-3.55,44.84-35.87,55.7-30.79,7.8,3.65,7.85,23.9,1.47,38.11C121,134.66,97.82,149,73.6,144.35,51.5,140.12,34.43,121.23,32,98.06Z"/><path class="cls-4" d="M237.54,106.49H220l-2.54,7.83h-8.18l13.55-40.76h11.62l13.76,40.76h-8Zm-1.79-5.7-7-21.23-6.93,21.23Z"/><path class="cls-4" d="M304.3,109.68l-2.06,3a1,1,0,0,1-1.39.26l-3.06-2.12q-3.8,3.86-14.45,3.85-11.67,0-15-3.5T265,95.27q0-14.42,3.15-18.24t15-3.82q11.7,0,14.94,3.59t3.24,16.59q0,9.23-.8,12.54l3.44,2.36A1,1,0,0,1,304.3,109.68ZM282.24,99l2.09-3a1,1,0,0,1,1.38-.26l7.6,5.15c.16-1.47.24-2.46.24-2.95V88.73q0-5.7-1.85-7.3c-1.23-1.06-4-1.6-8.39-1.6-5.19,0-8.23.67-9.1,2s-1.32,6-1.32,13.86q0,9,1.6,10.65t10,1.71a10.91,10.91,0,0,0,6.68-1.82l-8.65-5.86A1,1,0,0,1,282.24,99Z"/><path class="cls-4" d="M349.38,73.56h7.73v27.11q0,8.51-3.26,11.26t-13.37,2.74q-10.65,0-14-2.59t-3.31-11V73.56h7.73v27.56c0,3,.54,4.91,1.61,5.72s3.61,1.21,7.59,1.21,6.64-.41,7.68-1.23,1.57-2.81,1.57-6Z"/><path class="cls-4" d="M404.2,106.49H386.61l-2.54,7.83h-8.18l13.56-40.76h11.61l13.77,40.76h-8Zm-1.79-5.7-7.05-21.23-6.93,21.23Z"/><path class="cls-4" d="M440.56,80.07V90.58h19.11v5.7H440.56v11.53h20.33v6.51H432.83V73.56h27.88v6.51Z"/><path class="cls-4" d="M519.26,109.68l-2.06,3a1,1,0,0,1-1.39.26l-3.06-2.12q-3.79,3.86-14.45,3.85-11.67,0-15-3.5T480,95.27q0-14.42,3.15-18.24t15-3.82q11.7,0,14.94,3.59t3.24,16.59q0,9.23-.8,12.54l3.44,2.36A1,1,0,0,1,519.26,109.68ZM497.2,99l2.09-3a1,1,0,0,1,1.38-.26l7.6,5.15c.16-1.47.24-2.46.24-2.95V88.73q0-5.7-1.85-7.3c-1.23-1.06-4-1.6-8.39-1.6-5.19,0-8.23.67-9.1,2s-1.32,6-1.32,13.86q0,9,1.6,10.65t10,1.71a10.91,10.91,0,0,0,6.68-1.82l-8.65-5.86A1,1,0,0,1,497.2,99Z"/><path class="cls-4" d="M564.34,73.56h7.74v27.11c0,5.67-1.1,9.43-3.27,11.26s-6.64,2.74-13.36,2.74q-10.66,0-14-2.59t-3.31-11V73.56h7.73v27.56c0,3,.54,4.91,1.61,5.72s3.61,1.21,7.59,1.21,6.64-.41,7.68-1.23,1.57-2.81,1.57-6Z"/><path class="cls-4" d="M602.23,73.56v40.76H594.5V73.56Z"/><path class="cls-4" d="M624.74,114.32V73.56h18.45q8.26,0,11.15,2.88c1.92,1.93,2.88,5.63,2.88,11.13s-.91,9.07-2.74,10.86-5.54,2.69-11.11,2.69l-1.79,0h-9.11v13.17Zm7.73-19.68h8.81c3.5,0,5.73-.4,6.67-1.21s1.42-2.71,1.42-5.71c0-3.45-.39-5.58-1.18-6.41s-2.83-1.24-6.13-1.24h-9.59Z"/><path class="cls-4" d="M694.36,73.21q11.11,0,14.3,3.68t3.2,16.5q0,14-3.21,17.64t-15.54,3.64q-11.1,0-14.36-3.59t-3.26-15.84q0-14.56,3.2-18.3T694.36,73.21Zm-.59,6.62c-5.2,0-8.23.67-9.11,2s-1.31,6-1.31,13.86q0,8.78,1.53,10.57t9.07,1.79c4.79,0,7.67-.68,8.62-2S704,100.61,704,93.81s-.46-10.87-1.36-12.11S698.78,79.83,693.77,79.83Z"/><path class="cls-4" d="M762.61,85.45h-7.55q-.06-.57-.06-.84c-.18-2.29-.69-3.73-1.52-4.31s-2.81-.88-5.91-.88c-3.67,0-6.06.33-7.18,1s-1.69,2.1-1.69,4.27q0,3.85,1.37,4.63c.92.52,3.94.91,9.08,1.19q9.11.51,11.78,2.6t2.67,8.69q0,8.11-3.14,10.49t-13.82,2.37q-9.61,0-12.76-2.32t-3.15-9.44l0-1.49h7.52l0,.86q0,4.27,1.49,5.23c1,.64,3.72.95,8.15.95,3.47,0,5.68-.36,6.63-1.1s1.44-2.44,1.44-5.11c0-2-.37-3.27-1.09-3.92s-2.3-1-4.71-1.18l-4.27-.27c-6.45-.38-10.56-1.27-12.36-2.69s-2.68-4.44-2.68-9.1,1.08-7.93,3.24-9.51,6.47-2.37,12.94-2.37q9.19,0,12.39,2.17c2.13,1.46,3.19,4.29,3.19,8.51Z"/><path class="cls-5" d="M438.13,140.76v5.3h9.63v2.87h-9.63v5.81h10.25V158H434.23V137.48h14.06v3.28Z"/><path class="cls-5" d="M470.65,143.64l-4.18,6.77,4.65,7.61H467l-2.89-5.22L461.29,158h-4.23l4.71-7.57-4.15-6.81h4.11l2.37,4.56,2.44-4.56Z"/><path class="cls-5" d="M480.42,143.64h3.51l-.14,2.13.08,0q1.25-2.34,4.65-2.34,3.14,0,4.32,1.56T494,150.7c0,2.86-.39,4.83-1.17,5.89s-2.23,1.6-4.35,1.6-3.73-.75-4.42-2.26H484v8.27h-3.6Zm6.79,2.54c-1.32,0-2.18.3-2.58.89a7.64,7.64,0,0,0-.6,3.76,7.16,7.16,0,0,0,.65,3.72,3.06,3.06,0,0,0,2.63.92c1.35,0,2.22-.3,2.62-.88a7.54,7.54,0,0,0,.6-3.74c0-2-.2-3.24-.61-3.81S488.61,146.18,487.21,146.18Z"/><path class="cls-5" d="M513.88,153.42h3.46V154c0,2.8-2.11,4.21-6.32,4.21q-4.29,0-5.62-1.46t-1.32-6.19q0-4.2,1.38-5.64c.93-1,2.73-1.45,5.41-1.45s4.29.47,5.16,1.41,1.31,2.78,1.31,5.53v1.06H507.6q0,.48,0,.63a4.39,4.39,0,0,0,.65,2.83,3.6,3.6,0,0,0,2.62.71,4.69,4.69,0,0,0,2.46-.42C513.69,154.93,513.88,154.33,513.88,153.42Zm0-4.08,0-.57a3,3,0,0,0-.59-2.23,4.35,4.35,0,0,0-2.58-.51,3.57,3.57,0,0,0-2.51.62,4.19,4.19,0,0,0-.58,2.69Z"/><path class="cls-5" d="M528,143.64h3.45l-.21,2,.07,0a4.11,4.11,0,0,1,3.88-2.26q3.79,0,3.8,4.79v1h-3.25c0-.39,0-.64,0-.76,0-1.54-.59-2.31-1.79-2.31q-2.55,0-2.55,3.42V158H528Z"/><path class="cls-5" d="M557.9,143.64v2.61h-5.54v7.23c0,1.33.51,2,1.52,2s1.67-.81,1.67-2.42v-.57h2.94v.72c0,.66,0,1.23-.06,1.7-.19,2.2-1.83,3.29-4.91,3.29s-4.6-1.4-4.6-4.22v-7.73h-1.87v-2.61h1.87v-3.23h3.44v3.23Z"/><path class="cls-5" d="M574.41,143.47q4.17,0,5.46,1.33t1.3,5.62q0,4.8-1.27,6.28t-5.32,1.49q-4.41,0-5.72-1.38c-.86-.93-1.3-3-1.3-6.1s.43-5,1.28-5.88S571.55,143.47,574.41,143.47Zm0,2.72c-1.43,0-2.35.26-2.74.78s-.59,1.72-.59,3.62c0,2.17.19,3.52.56,4.06s1.3.82,2.79.82,2.34-.29,2.71-.86.57-2,.57-4.13c0-1.83-.2-3-.59-3.52S575.79,146.19,574.38,146.19Z"/><path class="cls-5" d="M603.76,147.59h-3.37c0-.12,0-.21,0-.27-.07-.69-.27-1.12-.59-1.29a6.54,6.54,0,0,0-2.37-.26c-1.8,0-2.7.59-2.7,1.75q0,1.18.48,1.41a13.39,13.39,0,0,0,3.21.36c2.46.13,4.06.45,4.8,1s1.12,1.62,1.12,3.27-.5,3-1.49,3.65-2.76,1-5.32,1-4.14-.3-5-.91-1.35-1.76-1.35-3.43v-.37h3.58a3.51,3.51,0,0,0-.09.49c-.14,1.27.84,1.91,2.95,1.91s3.26-.64,3.26-1.9-.68-1.82-2-1.82q-4.62,0-6.09-.87c-1-.59-1.47-1.79-1.47-3.63,0-1.65.45-2.76,1.34-3.34s2.61-.88,5.15-.88,4,.29,4.84.85S603.76,146,603.76,147.59Z"/><path class="cls-5" d="M631.68,153.42h3.46V154c0,2.8-2.11,4.21-6.32,4.21q-4.29,0-5.62-1.46t-1.32-6.19q0-4.2,1.38-5.64c.93-1,2.73-1.45,5.41-1.45s4.29.47,5.16,1.41,1.31,2.78,1.31,5.53v1.06H625.4q0,.48,0,.63a4.32,4.32,0,0,0,.66,2.83,3.56,3.56,0,0,0,2.61.71,4.76,4.76,0,0,0,2.47-.42C631.49,154.93,631.68,154.33,631.68,153.42Zm0-4.08,0-.57a3,3,0,0,0-.59-2.23,4.35,4.35,0,0,0-2.58-.51,3.57,3.57,0,0,0-2.51.62,4.26,4.26,0,0,0-.58,2.69Z"/><path class="cls-5" d="M645.72,143.64h3.42l-.14,2.42h.08q1-2.59,4.51-2.6c3.4,0,5.11,1.59,5.11,4.76V158h-3.45v-9.21l-.08-1c-.16-1.08-1-1.62-2.53-1.62q-3.46,0-3.47,3.3V158h-3.45Z"/><path class="cls-5" d="M681.06,147.81h-3.52c0-1.73.4-2.88,1.2-3.47s2.4-.87,4.77-.87q3.88,0,5.26,1.07c.91.71,1.37,2.07,1.37,4.08V158h-3.45l.16-2h-.09q-1,2.15-4.59,2.15-5.22,0-5.22-4.44t5.34-4.49c2.38,0,3.83.55,4.34,1.65h.06v-2.34a3.09,3.09,0,0,0-.59-2.23,3.67,3.67,0,0,0-2.41-.55C681.94,145.79,681.06,146.46,681.06,147.81Zm2.3,3.77c-1.94,0-2.92.67-2.92,2a2.2,2.2,0,0,0,.6,1.84,4.89,4.89,0,0,0,2.53.43c2.1,0,3.15-.71,3.15-2.12S685.6,151.58,683.36,151.58Z"/><path class="cls-5" d="M714.14,143.64V158.3q0,3.51-1.42,4.83t-5.25,1.31c-2.46,0-4.12-.33-5-1s-1.25-2-1.25-3.93h3.34c0,.94.18,1.54.53,1.8a4.38,4.38,0,0,0,2.35.4c2.14,0,3.2-.88,3.2-2.65v-3.23l-.07,0c-.61,1.54-2,2.31-4.21,2.31s-3.67-.53-4.47-1.59-1.19-3-1.19-5.9c0-2.7.4-4.58,1.19-5.61s2.25-1.55,4.35-1.55q3.42,0,4.5,2.54h.07l-.17-2.37Zm-6.79,2.55q-2,0-2.55.81a7.57,7.57,0,0,0-.56,3.66c0,2,.19,3.33.56,3.89s1.24.84,2.6.84,2.23-.29,2.63-.86.6-1.86.6-3.83-.2-3.13-.6-3.68S708.74,146.19,707.35,146.19Z"/><path class="cls-5" d="M738,143.64V158h-3.44l.19-2.46-.06,0c-.67,1.77-2.22,2.65-4.63,2.65q-4.91,0-4.9-4.89v-9.66h3.45v8.83a3.93,3.93,0,0,0,.51,2.42,2.87,2.87,0,0,0,2.12.58q3.32,0,3.32-4v-7.85Z"/><path class="cls-5" d="M752.79,147.81h-3.52c0-1.73.4-2.88,1.2-3.47s2.4-.87,4.78-.87q3.87,0,5.25,1.07c.91.71,1.37,2.07,1.37,4.08V158h-3.45l.17-2h-.09q-1,2.15-4.59,2.15-5.24,0-5.23-4.44t5.35-4.49c2.37,0,3.82.55,4.33,1.65h.06v-2.34a3.09,3.09,0,0,0-.59-2.23,3.65,3.65,0,0,0-2.4-.55C753.67,145.79,752.79,146.46,752.79,147.81Zm2.3,3.77c-1.94,0-2.92.67-2.92,2a2.2,2.2,0,0,0,.61,1.84,4.82,4.82,0,0,0,2.52.43c2.1,0,3.15-.71,3.15-2.12S757.33,151.58,755.09,151.58Z"/></g></g></svg>