<?xml version="1.0" encoding="iso-8859-1"?>
<!-- Uploaded to: SVG Repo, www.svgrepo.com, Generator: SVG Repo Mixer Tools -->
<svg fill="#000000" height="800px" width="800px" version="1.1" id="Layer_1" xmlns="http://www.w3.org/2000/svg" xmlns:xlink="http://www.w3.org/1999/xlink" 
	 viewBox="0 0 512 512" xml:space="preserve">
<g>
	<g>
		<path d="M159.567,376.565c-2.195-3.826-7.074-5.143-10.898-2.951c-3.825,2.196-5.145,7.074-2.95,10.898
			c20.47,35.664,23.527,51.501,23.527,57.767c0,29.641-24.114,53.755-53.755,53.755c-29.641,0-53.755-24.114-53.755-53.755
			c0-22.958,34.341-77.339,53.737-105.364c3.874,5.612,9.154,13.427,14.888,22.381c2.377,3.713,7.317,4.795,11.028,2.417
			c3.713-2.377,4.795-7.315,2.417-11.028c-11.781-18.397-21.449-31.751-21.854-32.31c-3.134-4.323-9.791-4.323-12.926,0
			c-6.473,8.925-63.257,88.246-63.257,123.904c0,38.445,31.277,69.721,69.721,69.721s69.721-31.277,69.721-69.721
			C185.214,428.126,176.825,406.63,159.567,376.565z"/>
	</g>
</g>
<g>
	<g>
		<path d="M471.019,127.734h-90.394c-6.254-7.397-13.683-13.437-21.905-17.981V56.416h13.446c6.506,11.43,18.792,19.16,32.857,19.16
			c20.837,0,37.788-16.951,37.788-37.788C442.811,16.951,425.859,0,405.023,0c-13.174,0-24.789,6.781-31.555,17.031H268.393
			C261.629,6.781,250.014,0,236.84,0c-20.837,0-37.788,16.951-37.788,37.788c0,20.837,16.951,37.788,37.788,37.788
			c14.066,0,26.352-7.73,32.857-19.16h13.446v53.337c-8.221,4.544-15.651,10.583-21.905,17.981h-26.527
			c-4.409,0-7.983,3.573-7.983,7.983c0,4.41,3.574,7.983,7.983,7.983h30.352c2.489,0,4.836-1.161,6.346-3.139
			c11.901-15.594,29.951-24.537,49.522-24.537s37.622,8.942,49.522,24.537c1.51,1.978,3.858,3.139,6.346,3.139h86.235v69.189H376.8
			c-2.489,0-4.836,1.161-6.346,3.139c-11.901,15.594-29.951,24.537-49.522,24.537s-37.622-8.942-49.522-24.537
			c-1.51-1.978-3.858-3.139-6.346-3.139h-111.25c-4.409,0-7.983,3.573-7.983,7.983v26.079H76.64v-68.657
			c0-19.076,15.52-34.595,34.595-34.595h80.898c4.409,0,7.983-3.573,7.983-7.983c0-4.41-3.574-7.983-7.983-7.983h-80.898
			c-27.879,0-50.561,22.682-50.561,50.561v68.657H40.981c-4.409,0-7.983,3.573-7.983,7.983v36.191c0,4.41,3.574,7.983,7.983,7.983
			h134.121c4.409,0,7.983-3.573,7.983-7.983v-36.191c0-4.41-3.574-7.983-7.983-7.983h-13.306v-18.096h99.442
			c14.913,17.639,36.448,27.676,59.693,27.676c23.245,0,44.78-10.037,59.693-27.676h90.394c4.409,0,7.983-3.573,7.983-7.983v-85.156
			C479.002,131.307,475.428,127.734,471.019,127.734z M405.023,15.967c12.032,0,21.821,9.789,21.821,21.821
			s-9.789,21.821-21.821,21.821c-12.033,0-21.821-9.789-21.821-21.821S392.99,15.967,405.023,15.967z M236.84,59.609
			c-12.033,0-21.821-9.789-21.821-21.821s9.789-21.821,21.821-21.821s21.821,9.789,21.821,21.821S248.872,59.609,236.84,59.609z
			 M274.524,40.449c0.062-0.88,0.104-1.766,0.104-2.661c0-1.623-0.115-3.22-0.314-4.79h93.235c-0.2,1.57-0.314,3.167-0.314,4.79
			c0,0.895,0.043,1.781,0.104,2.661H274.524z M342.753,103.133c-6.987-2.013-14.312-3.075-21.821-3.075s-14.834,1.062-21.821,3.075
			V56.416h43.642V103.133z M167.119,262.919v20.224H48.965v-20.224H167.119z"/>
	</g>
</g>
<g>
	<g>
		<path d="M137.411,389.282c-2.195-3.826-7.075-5.143-10.898-2.95c-3.825,2.196-5.145,7.074-2.95,10.898
			c19.399,33.795,20.117,44.703,20.137,45.049c0,15.554-12.654,28.208-28.208,28.208c-4.409,0-7.983,3.573-7.983,7.983
			s3.574,7.983,7.983,7.983c24.358,0,44.175-19.817,44.175-44.175C159.667,438.942,158.062,425.26,137.411,389.282z"/>
	</g>
</g>
</svg>