<?xml version="1.0" encoding="iso-8859-1"?>
<!-- Uploaded to: SVG Repo, www.svgrepo.com, Generator: SVG Repo Mixer Tools -->
<svg version="1.1" id="Layer_1" xmlns="http://www.w3.org/2000/svg" xmlns:xlink="http://www.w3.org/1999/xlink" 
	 viewBox="0 0 512 512" xml:space="preserve">
<g>
	<polygon style="fill:#1D1D1B;" points="420.25,288.11 420.25,340.894 404.245,356.899 404.245,384.144 419.871,384.144 
		419.871,363.372 435.877,347.365 435.877,288.11 	"/>
	<path style="fill:#1D1D1B;" d="M379.856,52.025c0-15.341-12.479-27.82-27.82-27.82c-7.07,0-13.528,2.655-18.442,7.015
		c-4.118-4.319-9.924-7.015-16.363-7.015h-10.418c-5.662,0-10.832,2.086-14.798,5.523c-3.967-3.438-9.137-5.523-14.799-5.523
		h-10.418c-5.661,0-10.831,2.086-14.798,5.523c-3.967-3.438-9.137-5.523-14.798-5.523h-10.418c-5.661,0-10.831,2.086-14.798,5.523
		c-3.967-3.438-9.137-5.523-14.798-5.523h-10.418c-5.661,0-10.831,2.086-14.798,5.523c-3.967-3.438-9.137-5.523-14.798-5.523
		h-10.418c-12.489,0-22.612,10.124-22.612,22.611v210.489c0,12.488,10.124,22.611,22.612,22.611h10.418
		c5.661,0,10.831-2.086,14.798-5.523c3.967,3.438,9.137,5.523,14.798,5.523h10.418c5.661,0,10.831-2.086,14.798-5.523
		c3.967,3.438,9.137,5.523,14.798,5.523h10.418c5.661,0,10.831-2.086,14.798-5.523c3.967,3.438,9.137,5.523,14.798,5.523h10.418
		c5.662,0,10.832-2.086,14.799-5.523c3.967,3.438,9.137,5.523,14.798,5.523h10.418c2.439,0,4.785-0.391,6.985-1.105v65.508H308.21
		v55.64h8.541L324.755,512h54.564l8.003-112.041h8.541v-55.64h-16.006V52.025H379.856z M164.158,252.096
		c0,6.735-5.46,12.194-12.194,12.194c-6.735,0-12.195-5.459-12.195-12.194V52.025c0-6.735,5.46-12.194,12.195-12.194
		c6.734,0,12.194,5.459,12.194,12.194V252.096z M204.172,252.096c0,6.735-5.459,12.194-12.194,12.194
		c-6.735,0-12.194-5.459-12.194-12.194V52.025c0-6.735,5.459-12.194,12.194-12.194c6.735,0,12.194,5.459,12.194,12.194V252.096z
		 M244.186,252.096c0,6.735-5.459,12.194-12.194,12.194c-6.735,0-12.194-5.459-12.194-12.194V52.025
		c0-6.735,5.459-12.194,12.194-12.194c6.735,0,12.194,5.459,12.194,12.194V252.096z M284.202,252.096
		c0,6.735-5.46,12.194-12.195,12.194s-12.194-5.459-12.194-12.194V52.025c0-6.735,5.459-12.194,12.194-12.194
		s12.195,5.459,12.195,12.194V252.096z M339.842,257.305V52.025c0-6.724,5.47-12.194,12.194-12.194
		c6.723,0,12.194,5.47,12.194,12.194V344.32h-24.388L339.842,257.305L339.842,257.305z M312.022,264.29
		c-6.735,0-12.194-5.459-12.194-12.194V52.025c0-6.735,5.459-12.194,12.194-12.194c6.735,0,12.194,5.459,12.194,12.194v200.072
		C324.216,258.831,318.757,264.29,312.022,264.29z M364.769,496.375h-25.464l-0.598-8.383h26.661L364.769,496.375z M366.483,472.366
		h-28.894l-5.172-72.405h39.239L366.483,472.366z M380.236,359.946v24.388h-56.4v-24.388H380.236z"/>
	
		<rect x="243.907" y="144.246" transform="matrix(5.300000e-004 1 -1 5.300000e-004 547.8117 -243.9839)" style="fill:#1D1D1B;" width="304.11" height="15.626"/>
	<rect x="100.136" y="0.006" style="fill:#1D1D1B;" width="15.626" height="304.11"/>
	<rect x="412.247" y="112.042" style="fill:#1D1D1B;" width="15.626" height="80.028"/>
	<rect x="76.123" y="112.042" style="fill:#1D1D1B;" width="15.626" height="80.028"/>
</g>
</svg>